<?xml version="1.0" encoding="utf-8"?>
<!-- Generator: Adobe Illustrator 18.1.1, SVG Export Plug-In . SVG Version: 6.00 Build 0)  -->
<svg version="1.1" id="Layer_1" xmlns="http://www.w3.org/2000/svg" xmlns:xlink="http://www.w3.org/1999/xlink" x="0px" y="0px"
	 viewBox="0 0 229 376" enable-background="new 0 0 229 376" xml:space="preserve">
<g>
	<path fill-rule="evenodd" clip-rule="evenodd" d="M39.8,296.6c8.2,3.9,18.5,2.1,27.2,1.8c1.7,1.1,2.9,1.9,5,2.1
		c2.8,2.1,6.1,4.5,9.8,4.5c3.2,0.8,6.9,0.9,10.1,0.8c5.3,2.2,11.9,1.4,17.5,0.9c6.9-0.6,13.9-0.1,20.8-0.2c7.2-0.2,14.1-1.2,20.9-1
		c1.6,0,1.7-0.3,4.4-0.5c1.7-0.6,1.9-0.8,3.4-1.3c5-1.5,10.4-2.5,14.9-5c-6.2,14.2-26.9,9.2-51,11.6c-13.3,1.3-21.6-1.1-21.6-1.1
		l-15.5-1.4c0,0-13.7,0.6-22.5,0.2c-12.4-0.5-30.9-3-30.7-8.7c0.1-2.1,0.6-3.7,1.1-5.4C35.7,294.6,37.8,295.7,39.8,296.6z"/>
	<g>
		<rect x="0" y="0" fill="#CC3300" width="228.5" height="80"/>
		<polygon fill-rule="evenodd" clip-rule="evenodd" fill="#FFFFFF" points="34.8,274.9 38.6,290.3 62.5,293.3 95.4,302.3 
			137.7,305.2 174,296.3 174,287.3 158.2,285.5 131.3,285.5 92.4,281.9 58.8,271 		"/>
		<polygon fill-rule="evenodd" clip-rule="evenodd" fill="#FFFFFF" points="81.1,164.9 74.7,179.4 91.8,196.4 112.4,223.6 
			143.7,251.5 177.6,266.3 183,259.2 173,247.7 151.7,231.3 122.8,205.2 102.7,176.2 		"/>
		<path fill-rule="evenodd" clip-rule="evenodd" fill="#F86E2D" d="M130,267c6.6,4.8,9.2,2.8,25.6,8.5c10.8,3.7,15.5,7.1,20.6,9.6
			c-0.6,5.5-0.2,1.6-0.6,5.5c-2,21-21.6,16.8-46,18.2v-7.5c7.6-0.8,15.1-2.1,17.4-2c14,0.6,25.7-5.8,25.7-5.8s0.5-1.9,0.6-3.2
			c0.2-2.9-1.3-1.6-3.1-1.8c0,0-1.7-0.4-3.4-0.5c-1.8-0.1-1-0.1-3.7-0.3c-0.7,0,0,0-4.9-0.3c-1.4,1.9-17.9,8.8-28.6,11.7v-28.3
			l2,0.2c0,0-0.4-2.1-1.7-2.1c-0.1,0-0.2,0-0.3,0V267C129.7,267,129.8,267,130,267z M129.5,308.7c-2.1,0.1-4.2,0.3-6.3,0.5
			c-1.2,0.1-2.3,0.2-3.4,0.3v-7.7c2.9,0,6.3-0.2,9.7-0.6V308.7L129.5,308.7z M119.8,261.1c1.3,0.4,2.9,1.7,2.9,3.2l1-0.1
			c0,0,3.8,3.4,4.2,3.4c0.8,0,1-0.5,1.7-0.6v1.8c-1.2,0.2-2,1.7-2,1.7l2,0.2V299c-3.2,0.9-5.9,1.4-7.5,1.3c-0.7,0-1.4-0.1-2.2-0.3
			v-34l1.7,1.7l0.2-3.5c0,0-0.9-1.6-1.9-1.9V261.1z M119.8,309.5c-2.4,0.1-4.6,0.2-6.6,0.1v-8.1c1.6,0.2,3.3,0.3,5,0.3
			c0.5,0,1,0,1.6,0V309.5L119.8,309.5z M113.3,256.9c2.4,0.7,4.5,4.5,4.5,4.5s0.7-0.5,1.2-0.5c0.2,0,0.5,0.1,0.8,0.2v1.3
			c-0.1,0-0.1,0-0.2,0c-0.5,0-1.5,0.4-1.5,0.4l-0.2,1.3l1.9,1.9v34c-2-0.4-4.2-1.1-6.6-2.1v-35.5l1.9,0.7l0.6-2.9
			c0,0-1.5-1.3-2.4-1.7V256.9z M113.3,309.6c-0.5,0-0.9,0-1.4-0.1v-8.2c0.5,0,0.9,0.1,1.4,0.1V309.6L113.3,309.6z M111.9,257
			c0.2-0.1,0.5-0.2,0.7-0.2c0.2,0,0.5,0.1,0.7,0.1v1.5c-0.1-0.1-0.3-0.1-0.4-0.1c-0.3,0-0.7,0.1-1,0.3V257L111.9,257z M113.3,262.4
			v35.5c-0.4-0.2-0.9-0.4-1.4-0.6v-17.6l1.1-0.3l-1.1-0.7v-16.9L113.3,262.4z M111.9,309.5c-6.5-0.3-10.2-1.4-10.2-1.4l-3.9-0.4
			v-8.8c4.4,1,9.2,1.9,14.1,2.4V309.5L111.9,309.5z M97.8,244.4c2.1,1.9,3.5,3.9,3.9,4.7c0,0,1.8-0.6,2.9-0.5
			c1.5,0.1,2.9,2.2,2.8,3.6c1.9,0.1,4.1,5.1,4.1,5.1s0.2-0.1,0.4-0.3v1.6c-0.4,0.2-0.7,0.4-0.7,0.4l-0.4,2.4l1.1,0.4v16.9
			c-5.4-3.5-10.1-6.6-14.1-9.2v-15.3c2.1-0.7,4.4-1.4,6.4-1.3c-0.1,2.6-2.6,6.1-2.6,6.1l4.2,1.2l2.3-6l-2.4-1.9
			c0-0.6-0.6-2.3-1.9-2.4c-2.6-0.1-3.7,1.5-6,2.4v-1.7l0.1,0.1l2.2-1.4c-0.7-1-1.5-1.9-2.4-2.9V244.4L97.8,244.4z M111.9,279.8
			l-2.9,0.7c-4.2-2.9-7.9-5.5-11.2-7.8v2.7c2.4,1.6,5.2,3.4,8.3,5.5l-3.9-0.2c-1.5-1-3-1.9-4.4-2.9v12c5,2.9,9.8,5.5,14.1,7.5V279.8
			z M97.8,307.7l-5.7-0.5v-9.7c1.8,0.5,3.7,1,5.7,1.5V307.7L97.8,307.7z M92.1,240.6c2.2,0.9,4.1,2.4,5.7,3.8v2.2
			c-1.7-1.8-3.6-3.5-5.7-4.6V240.6L92.1,240.6z M97.8,250.8v1.7c-0.1,0-0.2,0.1-0.4,0.1c-1.7,0.6-3.5,0.9-5.3,1.3v-1.4
			c0.8,0.1,1.5,0.3,1.5,0.3l3.1-1.2c0,0-2.4-0.7-4.6-0.9v-1.5C94.4,249.5,97.1,250.6,97.8,250.8L97.8,250.8z M97.8,254.4v15.3
			c-2.1-1.3-4-2.5-5.7-3.6v-9.7C92.9,256.3,95.2,255.3,97.8,254.4L97.8,254.4z M97.8,272.7c-2.1-1.5-4-2.8-5.7-4.1v3.1
			c1.6,1,3.5,2.2,5.7,3.6V272.7L97.8,272.7z M97.8,277.8v12c-1.9-1.1-3.8-2.2-5.7-3.2v-12.7C93.8,275.1,95.7,276.4,97.8,277.8z
			 M92.1,307.2l-5.8-0.5c0,0-7.6,0.3-15,0.3v-17.1c5.2,2.3,12.3,5.2,20.8,7.6V307.2L92.1,307.2z M71.3,257.9c4.6-2.5,9-5.6,9-5.6
			l-4.5-5l0.6-6.8c0,0,5.8-1.3,10.9-1.1c1.7,0.1,3.3,0.5,4.7,1.1v1.4c-1.6-0.9-3.3-1.4-5.1-1.5c-3.9-0.2-9.2,1.1-9.2,1.1l-0.3,5.4
			l4,4.4c0,0,5.4-2.6,9.5-2.4c0.3,0,0.7,0,1,0.1v1.5c-0.4,0-0.7-0.1-1.1-0.1c-6.1-0.3-13.2,5.6-19.7,9.4V257.9L71.3,257.9z
			 M92.1,252.5c-0.4-0.1-0.8-0.1-1.2-0.1c-7.2-0.3-13.4,5.7-19.6,9.5v14.6c6.8,2.5,13.9,6.3,20.8,10.2v-12.7c-10-7-12.3-9.8,0-2.2
			v-3.1c-15.1-10.9-14.6-11.6,0-2.6v-9.7h0c-2-0.1-3-0.4-4.6-0.8c1.6-0.7,3.1-1.2,4.6-1.5V252.5z M71.3,307c-2.5,0-5.1,0-7.3-0.1
			c-12.4-0.5-30.7-3-30.5-8.7c0.2-4.5,2.1-7,2.3-11.6c0.2-4.6-1.3-7-1.1-11.6c0.5-10.7,9.1-24.3,13.7-24.1
			c4.8,0.2,10.9,10.3,14.3,10.4c1.9,0.1,5.2-1.4,8.4-3.2v2.1c-3.2,1.9-6.2,3.2-9,3.1c-4.1-0.2-9.8-10.6-14-10.8
			c-1.1,0-2.4,1.4-2.4,1.4c5.4,0.2,12.4,11,16.3,11.2c3.1,0.1,6.1-1.2,9-3v14.6c-4.3-1.6-8.5-2.6-12.5-2.8
			c-3.4-0.2-13.7,5.1-21.6,4.7l1.1,8.4c0,0,3.2,2.2,7,2.4c6.5,0.3,10.5-3.4,16.6-3.1c1.1,0,4.4,1.7,9.4,3.9V307z"/>
		<linearGradient id="SVGID_1_" gradientUnits="userSpaceOnUse" x1="82.5613" y1="268.2378" x2="56.3416" y2="293.5579">
			<stop  offset="0" style="stop-color:#D1D3D4"/>
			<stop  offset="1" style="stop-color:#FFFFFF"/>
		</linearGradient>
		<path fill-rule="evenodd" clip-rule="evenodd" fill="url(#SVGID_1_)" d="M93.8,243.1c2.4,1.7,4.6,4.1,6.3,6.3l-2.2,1.4
			c0,0-1.9-0.8-4.1-1.4V243.1L93.8,243.1z M93.8,255.8c2.6-0.9,7-2.9,10.4-2.8c-0.1,2.6-2.6,6.1-2.6,6.1l4.2,1.2l2.3-6l-2.4-1.9
			c0-0.6-0.6-2.3-1.9-2.4c-2.7-0.1-3.8,1.6-6.4,2.6c-1.2,0.4-2.4,0.6-3.6,0.9V255.8L93.8,255.8z M93.8,252.7v-1.7
			c1.5,0.3,2.8,0.6,2.8,0.6L93.8,252.7L93.8,252.7z M110.8,261.5l0.4-2.4c0,0,1-0.7,1.7-0.7c0.8,0,2.8,1.8,2.8,1.8l-0.6,2.9
			L110.8,261.5L110.8,261.5z M117.9,264.1l0.2-1.3c0,0,1-0.5,1.5-0.4c1.1,0,2.1,1.9,2.1,1.9l-0.2,3.5L117.9,264.1L117.9,264.1z
			 M127.5,270.5c0,0,0.9-1.8,2.3-1.7c1.2,0.1,1.7,2.1,1.7,2.1L127.5,270.5z M87.1,240.5c2.4,0.1,4.6,1.1,6.7,2.6v6.4
			c-0.9-0.2-1.9-0.4-2.8-0.5c-1.3-0.1-2.6,0.2-4,0.5V240.5L87.1,240.5z M93.8,250.9v1.7l-0.2,0.1c0,0-1.6-0.3-2.7-0.4
			c-1.3-0.1-2.6,0.1-3.8,0.4v-1.6c1.3-0.4,2.6-0.6,3.9-0.5C91.9,250.6,92.9,250.8,93.8,250.9L93.8,250.9z M93.8,253.6v2.3
			c-0.8,0.3-1.4,0.5-1.8,0.4c-2-0.1-3-0.4-4.6-0.8C89.6,254.4,91.8,254,93.8,253.6z M81.5,251.4l-4-4.4l0.3-5.4c0,0,5.2-1.3,9.2-1.1
			l0.1,0v9C84.1,250.2,81.5,251.4,81.5,251.4L81.5,251.4z M87.1,251.1c-8.3,2.5-17.6,12.3-24.8,12c-4.1-0.2-9.8-10.6-14-10.8
			c-1.1,0-2.4,1.4-2.4,1.4c5.4,0.2,12.4,11,16.3,11.2c8.4,0.4,15.9-10,24.8-12.1V251.1z"/>
		<path fill-rule="evenodd" clip-rule="evenodd" fill="#FFD315" d="M104.8,290.8c6.7,3.6,12.7,6.3,17.2,6.5
			c7.2,0.3,32.8-7.9,34.6-10.5c0.1-2,2.1-2.7,4-2.5c1.4,0.2,2.7,1.1,3,1.2c2.7,0.1,3.7,0.7,5.5,0.8c1.6,0.1,3.7-0.4,3.7-0.4
			c1.6,0.1,1.7,2.9,1.5,6.1c-0.1,1.4-0.8,3.4-0.8,3.4s-12.9,5.7-26.9,5.1c-3.5-0.2-19.2,3.3-28.7,2.9c-4.5-0.2-8.9-0.7-13.1-1.4v-1
			c4.3,0.7,8.8,1.3,13.5,1.5c9.5,0.4,25.2-3,28.7-2.9c14,0.6,25.8-5.3,25.8-5.3s0.9-2.3,0.9-3.7c0.2-3.2-0.3-3.7-2-3.7
			c0,0-1.9,0.7-3.6,0.7c-1.8-0.1-2.2-0.5-4.9-0.6c-0.7,0-3-3.2-5-0.1c-1.8,2.7-28.9,13.1-36.1,12.8c-4.6-0.2-10.6-3-17.3-6.7V290.8z
			 M58.8,270.7c14.1,0.6,31.7,12.5,46,20.1v2.1C90.5,285,73,273,58.9,272.4c-3.4-0.2-15.1,5.3-23,5l1.6,9.9c0,0,3.8,2.8,7.6,2.9
			c6.5,0.3,10.7-4.4,16.8-4.2c2.9,0.1,19.5,10.7,42.9,14.8v1c-23.6-4-40.4-14.7-43.3-14.8c-6.1-0.3-10.3,4.5-16.8,4.2
			c-3.8-0.2-7.6-2.9-7.6-2.9l-2.2-11.6C42.8,276.9,55.4,270.5,58.8,270.7z"/>
		<path fill-rule="evenodd" clip-rule="evenodd" fill="#F86E2D" d="M161.3,216.8c2.3,7.8,5.6,7.9,15.1,22.3
			c6.2,9.5,7.9,15,10.4,20.2c-3.8,3.9-1.2,1.1-3.8,3.9c-14.4,15.4-27.4,0.1-47.6-13.7l4.6-5.9c6.5,4,13.3,7.5,15,9
			c10.7,9,23.9,11.1,23.9,11.1s1.6-1.2,2.4-2.2c1.9-2.2-0.1-2.1-1.3-3.3c0,0-1.1-1.4-2.4-2.4c-1.3-1.1-0.7-0.7-2.8-2.5
			c-0.5-0.4,0,0-3.7-3.2c-2.3,0.7-19.5-4-29.8-8.2l17.3-22.4l1.4,1.4c0,0,0.9-1.9,0-2.7c-0.1-0.1-0.2-0.1-0.2-0.2l1.1-1.4
			C161,216.6,161.2,216.7,161.3,216.8z M135.4,249.5c-1.7-1.2-3.5-2.3-5.3-3.5c-1-0.6-1.9-1.2-2.8-1.8l4.7-6.1
			c2.3,1.8,5.1,3.7,8,5.4L135.4,249.5L135.4,249.5z M156.8,205.9c0.8,1.2,1.3,3.2,0.3,4.3l0.8,0.5c0,0,0.9,5,1.2,5.3
			c0.6,0.5,1.1,0.3,1.7,0.5l-1.1,1.4c-1.1-0.6-2.6,0.1-2.6,0.1l1.4,1.4l-17.3,22.4c-3-1.3-5.5-2.5-6.7-3.6c-0.5-0.4-1-1-1.6-1.5
			l20.7-26.9l0.3,2.4l2.3-2.6c0,0,0.3-1.8-0.4-2.6L156.8,205.9z M127.3,244.2c-2-1.4-3.7-2.7-5.3-3.9l5-6.4c1.2,1.1,2.4,2.2,3.7,3.3
			c0.4,0.3,0.8,0.7,1.2,1L127.3,244.2L127.3,244.2z M154.2,198.6c1.5,2.1,0.8,6.3,0.8,6.3s0.9,0,1.3,0.4c0.2,0.2,0.4,0.4,0.5,0.6
			l-0.8,1c0,0-0.1-0.1-0.1-0.1c-0.4-0.4-1.5-0.6-1.5-0.6l-0.9,0.9l0.3,2.7l-20.7,26.9c-1.4-1.5-2.6-3.4-3.9-5.7l21.7-28.1l1,1.7
			l2.2-2c0,0-0.4-2-0.9-2.8L154.2,198.6z M122,240.2c-0.4-0.3-0.7-0.6-1-0.9l5-6.5c0.3,0.3,0.7,0.6,1,0.9L122,240.2L122,240.2z
			 M153,197.8c0.2,0,0.5,0.1,0.7,0.2c0.2,0.1,0.3,0.3,0.5,0.5l-0.9,1.2c-0.1-0.1-0.1-0.2-0.2-0.3c-0.2-0.2-0.6-0.3-1-0.4L153,197.8
			L153,197.8z M150.8,202.9L129.1,231c-0.2-0.4-0.5-0.9-0.7-1.3l10.7-13.9l1,0.4l-0.4-1.2l10.3-13.4L150.8,202.9z M121,239.4
			c-4.9-4.2-7.2-7.4-7.2-7.4l-2.9-2.7l5.4-7c2.9,3.5,6.1,7.1,9.7,10.5L121,239.4L121,239.4z M149.6,179.2c0.5,2.8,0.4,5.2,0.2,6.1
			c0,0,1.8,0.6,2.6,1.4c1.1,1,0.9,3.5,0,4.6c1.5,1.2,0.1,6.5,0.1,6.5s0.2,0,0.5,0.1l-1,1.3c-0.4-0.1-0.8-0.1-0.8-0.1l-1.8,1.7l0.6,1
			l-10.3,13.4c-2.1-6.1-4-11.4-5.6-15.9l9.3-12.1c2.1,0.7,4.3,1.6,5.9,2.9c-1.7,2-5.8,3.2-5.8,3.2l2.6,3.5l5.5-3.3l-0.7-2.9
			c0.4-0.5,1-2.2-0.1-3.1c-2-1.7-3.8-1.1-6.2-1.8l1-1.3l0.1,0.1l2.7,0.2c0-1.2,0-2.4-0.1-3.7L149.6,179.2L149.6,179.2z M139.1,215.8
			l-2.8-1.2c-1.6-4.9-2.9-9.2-4.1-13l-1.7,2.1c1,2.7,2,5.9,3.2,9.4l-3-2.5c-0.6-1.7-1.2-3.4-1.7-4.9l-7.3,9.5
			c2.2,5.3,4.4,10.4,6.6,14.5L139.1,215.8z M110.9,229.3l-4.2-3.9l6-7.7c1.1,1.5,2.3,3.1,3.6,4.6L110.9,229.3L110.9,229.3z
			 M147.4,172.7c1.2,2.1,1.8,4.4,2.2,6.5l-1.3,1.7c-0.2-2.5-0.8-5-1.7-7.1L147.4,172.7L147.4,172.7z M145.6,184.3l-1,1.3
			c-0.1,0-0.2-0.1-0.4-0.1c-1.7-0.6-3.3-1.5-5-2.3l0.9-1.1c0.6,0.6,1.1,1.1,1.1,1.1l3.1,1c0,0-1.5-2-3.1-3.5l0.9-1.2
			C143.8,181.2,145.3,183.7,145.6,184.3L145.6,184.3z M143.5,187.1l-9.3,12.1c-0.8-2.3-1.6-4.5-2.3-6.3l6-7.7
			C138.4,185.7,140.8,186.2,143.5,187.1L143.5,187.1z M132.3,201.6c-0.8-2.5-1.4-4.7-2-6.7l-1.9,2.5c0.7,1.8,1.4,3.9,2.3,6.4
			L132.3,201.6L132.3,201.6z M129.1,205.7l-7.3,9.5c-0.8-2-1.7-4-2.5-6.1l7.7-10C127.6,201.1,128.3,203.3,129.1,205.7z M106.7,225.4
			l-4.2-3.9c0,0-6.2-4.4-12.1-8.9l10.5-13.5c2.7,5,6.6,11.6,11.8,18.7L106.7,225.4L106.7,225.4z M120.3,173.7c5.2,0.8,10.6,1,10.6,1
			l-0.5-6.7l4.6-5c0,0,5.4,2.5,9.3,5.8c1.3,1.1,2.3,2.4,3.1,3.8l-0.9,1.1c-0.7-1.7-1.8-3.2-3.1-4.3c-3-2.5-8-4.7-8-4.7l-3.5,4.1
			l0.5,5.9c0,0,5.9,1.3,9,3.9c0.2,0.2,0.5,0.4,0.7,0.7l-0.9,1.2c-0.3-0.3-0.5-0.5-0.8-0.7c-4.7-3.9-13.9-3.6-21.3-4.6L120.3,173.7
			L120.3,173.7z M140.1,182.1c-0.3-0.3-0.6-0.6-0.9-0.8c-5.5-4.7-14.1-3.7-21.3-4.5l-8.9,11.5c3.9,6.1,7.2,13.5,10.2,20.7l7.7-10
			c-3.6-11.6-3.7-15.3,1.3-1.7l1.9-2.5c-5.3-17.9-4.4-18.1,1.6-2l6-7.7l0,0c-1.6-1.3-2.1-2.1-3.1-3.5c1.7,0.4,3.2,1,4.5,1.6
			L140.1,182.1z M90.4,212.6c-2-1.6-4-3.1-5.7-4.6c-9.4-8-22.5-21.2-18.8-25.5c2.9-3.4,5.9-4.2,9-7.8c3-3.5,3.3-6.3,6.3-9.9
			c6.9-8.1,22.1-13.7,25.6-10.7c3.6,3.1,2.4,14.8,5,17c1.4,1.2,5,2,8.7,2.6l-1.3,1.6c-3.7-0.5-6.9-1.3-9-3
			c-3.1-2.6-1.3-14.4-4.5-17.1c-0.8-0.7-2.8-0.3-2.8-0.3c4.2,3.5,3.1,16.3,6.1,18.8c2.4,2,5.5,2.8,9,3.1l-8.9,11.5
			c-2.5-3.9-5.1-7.3-8.2-9.8c-2.6-2.2-14-4.4-20-9.5l-4.3,7.3c0,0,1.2,3.7,4.1,6.1c5,4.2,10.4,3.7,15.1,7.7c0.9,0.7,2.5,4,5.1,8.8
			L90.4,212.6z"/>
		
			<linearGradient id="SVGID_2_" gradientUnits="userSpaceOnUse" x1="-1504.0322" y1="-442.9814" x2="-1530.252" y2="-417.6613" gradientTransform="matrix(0.7917 0.6109 -0.6109 0.7917 1043.1628 1458.2533)">
			<stop  offset="0" style="stop-color:#D1D3D4"/>
			<stop  offset="1" style="stop-color:#FFFFFF"/>
		</linearGradient>
		<path fill-rule="evenodd" clip-rule="evenodd" fill="url(#SVGID_2_)" d="M147.2,175.7c0.9,2.9,1.2,6,1.1,8.9l-2.7-0.2
			c0,0-1-1.9-2.4-3.6L147.2,175.7L147.2,175.7z M139.4,185.8c2.6,0.8,7.3,1.9,9.9,4.2c-1.7,2-5.8,3.2-5.8,3.2l2.6,3.5l5.5-3.3
			l-0.7-2.9c0.4-0.5,1-2.2-0.1-3.1c-2.1-1.8-4-1-6.6-1.9c-1.1-0.4-2.3-0.9-3.4-1.5L139.4,185.8L139.4,185.8z M141.4,183.3l1.1-1.4
			c1,1.2,1.8,2.2,1.8,2.2L141.4,183.3L141.4,183.3z M149.5,200.7l1.8-1.7c0,0,1.2,0,1.7,0.5c0.6,0.5,1.1,3.1,1.1,3.1l-2.2,2
			L149.5,200.7L149.5,200.7z M153.5,207.1l0.9-0.9c0,0,1.1,0.2,1.5,0.6c0.8,0.7,0.5,2.8,0.5,2.8l-2.3,2.6L153.5,207.1L153.5,207.1z
			 M157.2,218c0,0,1.8-0.8,2.8,0c0.9,0.8,0,2.7,0,2.7L157.2,218z M143.5,169.6c1.8,1.5,3,3.7,3.7,6.2l-3.9,5.1
			c-0.6-0.8-1.2-1.5-1.9-2c-1-0.8-2.2-1.5-3.4-2L143.5,169.6L143.5,169.6z M142.4,182l-1.1,1.4l-0.2-0.1c0,0-1.1-1.2-1.9-1.9
			c-1-0.8-2.1-1.5-3.2-2l1-1.3c1.3,0.5,2.4,1.1,3.4,1.9C141.1,180.5,141.8,181.2,142.4,182L142.4,182z M140.8,184l-1.4,1.8
			c-0.8-0.3-1.4-0.5-1.7-0.7c-1.6-1.3-2.1-2.1-3.1-3.5C137,182.2,139,183.1,140.8,184z M132.4,174.9l-0.5-5.9l3.5-4.1
			c0,0,4.9,2.2,8,4.7l0.1,0.1l-5.5,7.1C135.2,175.5,132.4,174.9,132.4,174.9L132.4,174.9z M137,178c-8.1-3.1-21.5-1-26.9-5.6
			c-3.1-2.6-1.3-14.4-4.5-17.1c-0.8-0.7-2.8-0.3-2.8-0.3c4.2,3.5,3.1,16.3,6.1,18.8c6.4,5.4,18.6,1.8,27.1,5.6L137,178z"/>
		<path fill-rule="evenodd" clip-rule="evenodd" fill="#FFD315" d="M126.8,220.2c3.1,6.9,6.2,12.7,9.7,15.7
			c5.5,4.6,30.8,13.8,33.8,12.8c1.3-1.5,3.4-0.9,4.7,0.5c1,1,1.5,2.6,1.7,2.8c2.1,1.8,2.5,2.8,3.8,4c1.2,1.1,3.2,1.9,3.2,1.9
			c1.2,1.1-0.5,3.3-2.5,5.7c-0.9,1-2.7,2.2-2.7,2.2s-13.7-3.4-24.3-12.4c-2.7-2.3-17.2-9.1-24.5-15.3c-3.5-2.9-6.6-6-9.5-9.1
			l0.6-0.8c2.9,3.2,6.2,6.4,9.8,9.4c7.3,6.1,21.8,13,24.5,15.3c10.7,9,23.6,11.6,23.6,11.6s2.1-1.3,3-2.4c2.1-2.4,2-3.1,0.7-4.2
			c0,0-2-0.6-3.2-1.7c-1.3-1.1-1.5-1.7-3.5-3.5c-0.5-0.4-0.4-4.3-3.9-3.1c-3,1-31-7.3-36.5-11.9c-3.5-2.9-6.5-8.8-9.6-15.8
			L126.8,220.2z M102.7,176.2c10.8,9.1,17.5,29.2,24.1,44l-1.3,1.6c-6.5-14.9-13-35.1-23.8-44.2c-2.6-2.2-15.2-5.1-21.3-10.1
			l-4.8,8.8c0,0,1.3,4.5,4.2,7c5,4.2,11.2,3,15.9,7c2.2,1.9,8.9,20.4,24.9,37.9l-0.6,0.8c-16.2-17.6-23-36.3-25.2-38.2
			c-4.7-3.9-10.9-2.8-15.9-7c-2.9-2.5-4.2-7-4.2-7l5.4-10.5C86.2,171.3,100.1,174,102.7,176.2z"/>
		<path fill-rule="evenodd" clip-rule="evenodd" d="M71.8,185.1c4.1,8,13.3,13,20.4,18c0.7,1.8,1.1,3.3,2.6,4.7c1,3.4,2.1,7.2,5,9.5
			c2.1,2.6,4.9,4.9,7.5,6.8c2.9,5,8.6,8.3,13.3,11.4c5.8,3.8,11.1,8.4,16.6,12.6c5.8,4.2,11.9,7.7,17.1,11.9c1.2,1,1.6,0.8,3.8,2.3
			c1.7,0.6,1.9,0.5,3.5,1.1c4.9,1.9,9.7,4.4,14.9,5.2c-13.6,7.5-26.9-9.1-47.5-22c-11.4-7.1-16.4-14.1-16.4-14.1L101.3,222
			c0,0-11.2-7.9-17.9-13.6c-9.5-8-22.6-21.3-19-25.6c1.4-1.6,2.7-2.6,4.1-3.6C69.7,181,70.7,183.1,71.8,185.1z"/>
		<text transform="matrix(1 0 0 1 53.792 49.0688)" fill="#FFFFFF" font-family="'ArialMT'" font-size="34">Walking</text>
		<rect x="0" y="0" fill="none" stroke="#CC3300" stroke-miterlimit="10" width="228.5" height="375"/>
	</g>
</g>
</svg>
