<?xml version="1.0" encoding="utf-8"?>
<!-- Generator: Adobe Illustrator 18.1.1, SVG Export Plug-In . SVG Version: 6.00 Build 0)  -->
<svg version="1.1" id="Layer_1" xmlns="http://www.w3.org/2000/svg" xmlns:xlink="http://www.w3.org/1999/xlink" x="0px" y="0px"
	 viewBox="0 0 229 376" enable-background="new 0 0 229 376" xml:space="preserve">
<g>
	<g>
		<path fill="#F86E2D" d="M194.7,165.9c2.5-3.4,4.4-7.7,5.2-12.6l0,0c1.5-9-1.1-17.3-5.7-21.9l0,0c-2.1-2.1-4.5-3.4-7.3-3.9l0,0
			c-4.5-0.7-9.1,1-13.1,4.9l0,0c-3.6,3.6-6.4,9-7.5,15.3l0,0l-6-1c1.2-7.5,4.6-14,9.2-18.6l0,0c4.9-4.9,11.5-7.8,18.3-6.6l0,0
			c4.1,0.7,7.7,2.7,10.6,5.5l0,0c6.2,6.3,9.1,16.5,7.4,27.1l0,0c-1,5.8-3.2,11.1-6.3,15.3l0,0L194.7,165.9L194.7,165.9z"/>
	</g>
	<g>
		<g>
			<rect x="56" y="276.5" fill="#F86E2D" width="3.4" height="48.3"/>
		</g>
		<g>
			<path fill="#FFFFFF" d="M74.3,317.1c-6.4,5.2-14.9,5.3-14.9,5.3s1.9-8.4,8.3-13.7c6.4-5.2,14.9-5.3,14.9-5.3
				S80.7,311.9,74.3,317.1z"/>
		</g>
		<g>
			<path fill="#FFFFFF" d="M49.8,303.5c4.6,2.6,6.2,8.3,6.2,8.3s-5.8,1.4-10.5-1.3c-4.6-2.6-6.2-8.3-6.2-8.3S45.2,300.9,49.8,303.5z
				"/>
		</g>
	</g>
	<g>
		<rect x="0" fill="#CC3300" width="228.5" height="80"/>
		<g>
			<polygon fill="#F86E2D" points="210.7,173 154.6,229 117.4,174.7 156.3,135.8 			"/>
		</g>
		<g>
			<path fill="#F86E2D" d="M167.2,151.6c-3.8-4.1-7.4-8.5-11.3-12.4l0,0c-2.8-2.8-5.7-5.3-9-7.3l0,0c-4.9-3-10.3-3.9-15.4-3.1l0,0
				c-5.1,0.8-10,3.3-13.8,7.1l0,0c-3.1,3.1-5.5,7-6.7,11.6l0,0c-1.6,5.8-0.8,10.9,1.5,15.7l0,0c2.3,4.8,6,9.3,10.1,13.4l0,0
				c3.4,3.4,6.9,6.5,10.1,9.4l0,0l0,0l-1.9,2.1c-3.2-2.9-6.8-6.1-10.2-9.5l0,0c-4.2-4.2-8.2-8.9-10.7-14.1l0,0
				c-2.5-5.3-3.5-11.2-1.6-17.7l0,0c1.4-5.1,4.1-9.4,7.5-12.8l0,0c4.2-4.2,9.6-7,15.3-7.9l0,0c5.7-0.9,11.8,0.1,17.3,3.4l0,0
				c3.6,2.2,6.7,4.8,9.6,7.7l0,0c4,4,7.6,8.5,11.3,12.5l0,0L167.2,151.6L167.2,151.6z"/>
		</g>
		<g>
			<path fill="#F86E2D" d="M119.8,176.6c-2.8-7.3-1.3-14.3,1.3-19.7l0,0c2.6-5.4,6.2-9.4,7.9-11l0,0c0.5-0.5,0.8-0.8,0.8-0.8l0,0
				l0.7-0.6l9.8,9.8l0.7,0.7l-20.6,23.2L119.8,176.6L119.8,176.6z M123,157.8c-2.2,4.7-3.6,10.4-1.8,16.4l0,0l17-19.2l-7.7-7.7
				c0,0,0,0,0,0l0,0c0,0,0,0,0,0l0,0C128.9,148.9,125.4,152.8,123,157.8L123,157.8z"/>
		</g>
		<g>
			<polygon fill="#FFFFFF" points="138.7,205.8 187.4,157.1 183.2,154.2 135.8,201.6 			"/>
		</g>
		<path fill="#F86E2D" d="M84.9,208l3.3,20.6l7.8-5l-2.2-13.2L84.9,208z M95.9,210.2l2.1,12.4l47.1-4.1l-12-17.6L95.9,210.2z"/>
		<g>
			<g>
				<g>
					<path fill="#FFD315" d="M54.3,249.1l2.8-0.2v-27.9C47.5,221.8,54.3,249.1,54.3,249.1z M58,220.9v27.9l3-0.2
						C61,248.6,68,221.9,58,220.9z"/>
				</g>
				<g>
					<path fill="#FFD315" d="M48.7,252.4l2.3-1.6l-14-24.2C29.2,232.2,48.7,252.4,48.7,252.4z M37.9,226.1l13.9,24.1l2.5-1.7
						C54.3,248.6,47,221.9,37.9,226.1z"/>
				</g>
				<g>
					<path fill="#FFD315" d="M45.6,258l1.2-2.5l-24.2-14C18.6,250.3,45.6,258,45.6,258z M23.1,240.7l24.1,13.9l1.3-2.7
						C48.5,251.9,28.9,232.5,23.1,240.7z"/>
				</g>
				<g>
					<path fill="#FFD315" d="M45.6,264.5l-0.2-2.8H17.5C18.4,271.3,45.6,264.5,45.6,264.5z M17.5,260.7h27.9l-0.2-3
						C45.2,257.7,18.4,250.7,17.5,260.7z"/>
				</g>
				<g>
					<path fill="#FFD315" d="M48.9,270l-1.6-2.3l-24.2,14C28.8,289.6,48.9,270,48.9,270z M22.7,280.9l24.1-13.9l-1.7-2.5
						C45.2,264.4,18.5,271.7,22.7,280.9z"/>
				</g>
				<g>
					<path fill="#FFD315" d="M54.6,273.2l-2.5-1.2l-14,24.2C46.9,300.2,54.6,273.2,54.6,273.2z M37.3,295.7l13.9-24.1l-2.7-1.3
						C48.5,270.3,29.1,289.9,37.3,295.7z"/>
				</g>
				<g>
					<path fill="#FFD315" d="M61.1,273.1l-2.8,0.2v27.9C67.9,300.4,61.1,273.1,61.1,273.1z M57.3,301.3v-27.9l-3,0.2
						C54.3,273.6,47.3,300.3,57.3,301.3z"/>
				</g>
				<g>
					<path fill="#FFD315" d="M66.6,269.8l-2.3,1.6l14,24.2C86.2,290,66.6,269.8,66.6,269.8z M77.4,296.1l-13.9-24.1l-2.5,1.7
						C61,273.6,68.3,300.3,77.4,296.1z"/>
				</g>
				<g>
					<path fill="#FFD315" d="M69.8,264.2l-1.2,2.5l24.2,14C96.8,271.9,69.8,264.2,69.8,264.2z M92.3,281.5l-24.1-13.9l-1.3,2.7
						C66.8,270.3,86.5,289.7,92.3,281.5z"/>
				</g>
				<g>
					<path fill="#FFD315" d="M69.7,257.7l0.2,2.8l27.9,0C97,250.9,69.7,257.7,69.7,257.7z M97.8,261.5H70l0.2,3
						C70.2,264.5,96.9,271.5,97.8,261.5z"/>
				</g>
				<g>
					<path fill="#FFD315" d="M66.4,252.1l1.6,2.3l24.2-14C86.6,232.6,66.4,252.1,66.4,252.1z M92.7,241.3l-24.1,13.9l1.7,2.5
						C70.2,257.7,96.8,250.5,92.7,241.3z"/>
				</g>
				<g>
					<path fill="#FFD315" d="M60.8,249l2.5,1.2l14-24.2C68.5,222,60.8,249,60.8,249z M78.1,226.5l-13.9,24.1l2.7,1.3
						C66.8,251.9,86.3,232.3,78.1,226.5z"/>
				</g>
			</g>
			<g>
				<path fill="#F86E2D" d="M73.1,261.1c0,8.5-6.9,15.4-15.4,15.4c-8.5,0-15.4-6.9-15.4-15.4c0-8.5,6.9-15.4,15.4-15.4
					C66.2,245.7,73.1,252.6,73.1,261.1z"/>
				<path fill="#6E2405" d="M41.8,261.1c0-8.8,7.1-15.9,15.9-15.9l0,0c8.8,0,15.9,7.1,15.9,15.9l0,0c0,8.8-7.1,15.9-15.9,15.9l0,0
					C48.9,277,41.8,269.9,41.8,261.1L41.8,261.1z M47.1,250.5c-2.7,2.7-4.4,6.4-4.4,10.6l0,0c0,4.1,1.7,7.9,4.4,10.6l0,0
					c2.7,2.7,6.4,4.4,10.6,4.4l0,0c4.1,0,7.8-1.7,10.6-4.4l0,0c2.7-2.7,4.4-6.4,4.4-10.6l0,0c0-4.1-1.7-7.9-4.4-10.6l0,0
					c-2.7-2.7-6.4-4.4-10.6-4.4l0,0C53.6,246.2,49.8,247.8,47.1,250.5L47.1,250.5z"/>
			</g>
			<g>
				<path fill="#6E2405" d="M70.6,252.8c-0.2-0.3-0.5-0.6-0.7-1h-3v-3c-0.3-0.2-0.6-0.5-1-0.7v3.7h-4.9v-5.7c-0.3-0.1-0.6-0.1-1-0.2
					v5.9h-4.9v-5.9c-0.3,0.1-0.6,0.1-1,0.2v5.7h-4.9v-3.7c-0.3,0.2-0.6,0.5-1,0.7v3h-3c-0.2,0.3-0.5,0.6-0.7,1h3.7v4.9h-5.7
					c-0.1,0.3-0.1,0.6-0.2,1h5.9v4.9h-5.9c0.1,0.3,0.1,0.6,0.2,1h5.7v4.9h-3.7c0.2,0.3,0.5,0.6,0.7,1h3v3c0.3,0.2,0.6,0.5,1,0.7
					v-3.7h4.9v5.7c0.3,0.1,0.6,0.1,1,0.2v-5.9h4.9v5.9c0.3,0,0.6-0.1,1-0.2v-5.7H66v3.7c0.3-0.2,0.6-0.5,1-0.7v-3h3
					c0.2-0.3,0.5-0.6,0.7-1h-3.7v-4.9h5.7c0.1-0.3,0.1-0.6,0.2-1h-5.9v-4.9h5.9c-0.1-0.3-0.1-0.6-0.2-1h-5.7v-4.9H70.6z M54.3,269.4
					h-4.9v-4.9h4.9V269.4z M54.3,263.5h-4.9v-4.9h4.9V263.5z M54.3,257.7h-4.9v-4.9h4.9V257.7z M60.1,269.4h-4.9v-4.9h4.9V269.4z
					 M60.1,263.5h-4.9v-4.9h4.9V263.5z M60.1,257.7h-4.9v-4.9h4.9V257.7z M66,269.4h-4.9v-4.9H66V269.4z M66,263.5h-4.9v-4.9H66
					V263.5z M66,257.7h-4.9v-4.9H66V257.7z"/>
			</g>
		</g>
		<text transform="matrix(1 0 0 1 34.8662 49.0688)" fill="#FFFFFF" font-family="'ArialMT'" font-size="34">Gardening</text>
		<rect x="0" fill="none" stroke="#CC3300" stroke-miterlimit="10" width="228.5" height="375"/>
	</g>
</g>
</svg>
