<?xml version="1.0" encoding="utf-8"?>
<!-- Generator: Adobe Illustrator 18.1.1, SVG Export Plug-In . SVG Version: 6.00 Build 0)  -->
<svg version="1.1" id="Layer_1" xmlns="http://www.w3.org/2000/svg" xmlns:xlink="http://www.w3.org/1999/xlink" x="0px" y="0px"
	 viewBox="0 0 229 376" enable-background="new 0 0 229 376" xml:space="preserve">
<g>
	<g>
		<path fill="#F86E2D" d="M167.9,200.8c-7,0-13.5,2-19,5.4l-12.2-16c0,0,0,0,0,0l3.1-7.3c0.1-0.2,0.1-0.4,0.1-0.6c0.4,0,0.8,0,1.1,0
			c4.4,0,7.6-1.1,9.5-3.4c1.8-2.2,2.4-5.2,1.7-9.1c-0.1-0.4-0.3-0.8-0.7-1c-0.4-0.2-0.8-0.3-1.2-0.2c-0.1,0-11.9,3.4-18.5,3.4
			c-1.1,0-1.9-0.1-2.6-0.3c-1.2-0.3-2.4-0.5-3.7-0.5c-4.6,0-8.3,2.2-8.5,2.3c-0.5,0.3-0.8,0.8-0.8,1.4c0,0.6,0.4,1.1,0.9,1.3
			c0.4,0.2,8.4,3.6,16.5,5.3l-3.2,7.5H82.3c0.9-4.2,1.6-7.2,1.7-7.6c0.3-1.3-0.3-2.7-1.5-3.3c-4.6-2.6-9.5-7.2-9.1-9.1
			c0-0.1,0.8-3,13.6-4.3c1.7-0.2,2.9-1.7,2.8-3.4c-0.2-1.7-1.7-2.9-3.4-2.8c-7.5,0.8-17.5,2.5-19,9.1c-1.3,6.1,6.2,11.9,10.1,14.5
			c-0.9,4.2-3.2,14.1-5.2,22.7c-5-2.6-10.7-4.1-16.8-4.1c-20.3,0-36.7,16.6-36.7,37.1c0,20.5,16.4,37.1,36.7,37.1
			c20.3,0,36.7-16.6,36.7-37.1c0-12-5.7-22.7-14.5-29.4c0.4-1.6,0.8-3.2,1.2-4.8l30.8,38c0,0,0.1,0,0.1,0.1c0.2,0.2,0.5,0.4,0.7,0.6
			c0.1,0.1,0.2,0.2,0.3,0.2c0,0,0,0,0.1,0c0.4,0.2,0.8,0.2,1.2,0.2c0,0,0,0,0,0l4.7,15h-1.4c-0.9,0-1.7,0.8-1.7,1.7
			c0,1,0.8,1.7,1.7,1.7h5.8c0.9,0,1.7-0.8,1.7-1.7c0-0.9-0.8-1.7-1.7-1.7H120c0-0.2,0-0.3,0-0.5l-4.6-14.6l16.1-0.5
			c2.1,18.5,17.6,32.8,36.5,32.8c20.3,0,36.7-16.6,36.7-37.1C204.6,217.4,188.2,200.8,167.9,200.8z M86.4,237.9
			c0,17.2-13.8,31.2-30.9,31.2c-17,0-30.9-14-30.9-31.2c0-17.2,13.8-31.2,30.9-31.2c5.6,0,10.8,1.5,15.3,4.1c-0.9,3.5-1.7,6.4-2.2,8
			c-1.1,3.3-5.4,7.8-9.3,11.5c-1.1-0.6-2.4-0.9-3.7-0.9c-4.7,0-8.5,3.8-8.5,8.5c0,4.7,3.8,8.5,8.5,8.5c4.7,0,8.5-3.8,8.5-8.5
			c0-1.1-0.2-2.1-0.6-3c4.3-4,9.5-9.4,11-14.1c0.5-1.3,1.1-3.5,1.7-6.1C82.4,220.5,86.4,228.7,86.4,237.9z M60.9,237.9
			c0,3-2.4,5.4-5.4,5.4c-3,0-5.4-2.4-5.4-5.4c0-3,2.4-5.4,5.4-5.4c0.4,0,0.8,0,1.2,0.1c-1.4,1.2-2.6,2.1-3.4,2.8
			c-1.3,1-1.6,3-0.6,4.3c0.6,0.8,1.5,1.2,2.4,1.2c0.7,0,1.3-0.2,1.9-0.6c0.4-0.3,1.9-1.5,3.8-3.1C60.9,237.5,60.9,237.7,60.9,237.9z
			 M143.9,209.9c-7.3,6.4-12.1,15.7-12.6,26.1l-14.4,0.5l17-39.8L143.9,209.9z M171.6,236.1l-2.6-3.4c2.5,0.5,4.3,2.7,4.3,5.3
			c0,3-2.4,5.4-5.4,5.4c-1.7,0-3.3-0.8-4.3-2.1l5.6-0.2c1.2,0,2.2-0.7,2.7-1.8C172.4,238.2,172.3,237,171.6,236.1z M159.9,235.1
			l-22.8,0.7c0.5-8.5,4.4-16,10.3-21.3l13.8,18.1C160.7,233.4,160.3,234.2,159.9,235.1z M80.9,195.2h46.9L112,232.3l-3.9-12.4h1.1
			c0.9,0,1.7-0.8,1.7-1.7c0-0.9-0.8-1.7-1.7-1.7h-5.8c-0.9,0-1.7,0.8-1.7,1.7c0,0.9,0.8,1.7,1.7,1.7h1.5l3,9.6l-27.2-33.5
			C80.8,195.8,80.8,195.5,80.9,195.2z M167.9,269.1c-15.7,0-28.6-11.8-30.6-27.1l22.8-0.7c1.3,3,4.3,5.1,7.8,5.1
			c4.7,0,8.5-3.8,8.5-8.5c0-4.7-3.8-8.5-8.5-8.5c-0.4,0-0.9,0.1-1.3,0.1L152.5,211c4.5-2.7,9.8-4.2,15.4-4.2
			c17.1,0,30.9,14,30.9,31.2C198.8,255.1,185,269.1,167.9,269.1z"/>
		<g>
			<rect x="0" fill="#CC3300" width="228.5" height="80"/>
			<text transform="matrix(1 0 0 1 67.9529 49.0688)" fill="#FFFFFF" font-family="'ArialMT'" font-size="34">Biking</text>
		</g>
		<rect x="0" fill="none" stroke="#CC3300" stroke-miterlimit="10" width="228.5" height="375"/>
	</g>
	<g>
		<g>
			<path fill="#FFD315" d="M40.6,301.7c14.3-5.8,29.9-7.7,45-4.5c7.2,1.5,14.1,4.2,21.5,4.6c3.7,0.2,7.5-0.4,11-1.7
				c3.4-1.2,6.5-3,10.2-3c5.8,0,11.5,3.1,16.8,5.2c5.7,2.3,11.6,4,17.8,3.5c7.2-0.6,13.4-4.4,20.4-5.7c8-1.5,16.2,1,23.9,3.1
				c7.4,2.1,10.5-9.4,3.2-11.5c-7.8-2.2-15.9-4.4-24.1-3.9c-7.8,0.4-14.3,4.1-21.7,5.7c-12.6,2.7-23.6-8.3-36.2-8.3
				c-7.5,0-13.7,5.1-21.2,4.7c-7.7-0.4-15.1-3.8-22.7-5c-15.8-2.5-32.1-0.7-46.9,5.3C30.4,293.1,33.5,304.6,40.6,301.7L40.6,301.7z"
				/>
		</g>
	</g>
	<g>
		<g>
			<path fill="#FFFFFF" d="M40.6,302.7c14.3-5.8,29.9-7.7,45-4.5c7.2,1.5,14.1,4.2,21.5,4.6c3.7,0.2,7.5-0.4,11-1.7
				c3.4-1.2,6.5-3,10.2-3c5.8,0,11.5,3.1,16.8,5.2c5.7,2.3,11.6,4,17.8,3.5c7.2-0.6,13.4-4.4,20.4-5.7c8-1.5,16.2,1,23.9,3.1
				c7.4,2.1,10.5-9.4,3.2-11.5c-7.8-2.2-15.9-4.4-24.1-3.9c-7.8,0.4-14.3,4.1-21.7,5.7c-12.6,2.7-23.6-8.3-36.2-8.3
				c-7.5,0-13.7,5.1-21.2,4.7c-7.7-0.4-15.1-3.8-22.7-5c-15.8-2.5-32.1-0.7-46.9,5.3C30.4,294.1,33.5,305.6,40.6,302.7L40.6,302.7z"
				/>
		</g>
	</g>
	<g>
		<g>
			<path fill="#FFD315" d="M40.6,295.7c14.3-5.8,29.9-7.7,45-4.5c7.2,1.5,14.1,4.2,21.5,4.6c3.7,0.2,7.5-0.4,11-1.7
				c3.4-1.2,6.5-3,10.2-3c5.8,0,11.5,3.1,16.8,5.2c5.7,2.3,11.6,4,17.8,3.5c7.2-0.6,13.4-4.4,20.4-5.7c8-1.5,16.2,1,23.9,3.1
				c7.4,2.1,10.5-9.4,3.2-11.5c-7.8-2.2-15.9-4.4-24.1-3.9c-7.8,0.4-14.3,4.1-21.7,5.7c-12.6,2.7-23.6-8.3-36.2-8.3
				c-7.5,0-13.7,5.1-21.2,4.7c-7.7-0.4-15.1-3.8-22.7-5c-15.8-2.5-32.1-0.7-46.9,5.3C30.4,287.1,33.5,298.6,40.6,295.7L40.6,295.7z"
				/>
		</g>
	</g>
</g>
</svg>
