<?xml version="1.0" encoding="utf-8"?>
<!-- Generator: Adobe Illustrator 18.1.1, SVG Export Plug-In . SVG Version: 6.00 Build 0)  -->
<svg version="1.1" id="Layer_1" xmlns="http://www.w3.org/2000/svg" xmlns:xlink="http://www.w3.org/1999/xlink" x="0px" y="0px"
	 viewBox="0 0 229 376" enable-background="new 0 0 229 376" xml:space="preserve">
<g>
	<rect x="0" fill="#CC3300" width="228.5" height="80"/>
	<path fill="#FFFFFF" d="M68.4,312.9c0,0,5.1,0.9,9.4-0.4c0,0,1.1,4.3,1.4,7.3c0.3,3.1-0.8,6.1-3.2,6.5c-2.4,0.4-5.8-1.5-6.5-4.7
		C68.9,318.4,68.4,314.9,68.4,312.9z"/>
	<path fill="#F86E2D" d="M67.8,309.1c0,0,2.7,1,9.2,0.4c0,0-0.6-1.7,0.4-4.4c1-2.7,4-7.2,3.7-12.3c-0.3-5.2-3.5-14-6.1-14.6
		c-2.7-0.6-5.8,0.9-7.6,7.5c-1.8,6.7-3,8.4-1.4,15.8C67.1,306.7,67.8,309.1,67.8,309.1z"/>
	<path fill="#FFFFFF" d="M99.1,229.8c0,0,5-1.4,8.3-4.4c0,0,2.9,3.3,4.5,6c1.6,2.6,2,5.8,0,7.2c-2,1.4-5.9,1.2-7.9-1.4
		C102,234.6,99.9,231.6,99.1,229.8z"/>
	<path fill="#F86E2D" d="M96.9,226.7c0,0,2.9-0.3,8.4-3.7c0,0-1.3-1.3-1.5-4.1c-0.2-2.8,0.4-8.2-2.1-12.7
		c-2.5-4.5-9.3-11.1-11.9-10.4c-2.6,0.7-4.8,3.3-3.6,10.1c1.2,6.8,0.9,8.9,5.7,14.8C95.2,224.8,96.9,226.7,96.9,226.7z"/>
	<path fill="#FFFFFF" d="M124.6,143.1c0,0,2.9,4.2,6.9,6.4c0,0-2.2,3.8-4.2,6.2c-2,2.4-4.8,3.8-6.8,2.4c-2-1.4-3-5.2-1.3-7.9
		C121,147.4,123.1,144.5,124.6,143.1z"/>
	<path fill="#F86E2D" d="M126.8,140c0,0,1.2,2.7,6.3,6.7c0,0,0.8-1.7,3.4-2.8c2.6-1.1,7.9-2.3,11.3-6.2c3.4-3.9,7.4-12.4,5.9-14.7
		c-1.5-2.3-4.7-3.4-10.7,0c-6,3.4-8,3.8-12.1,10.3C128,137.8,126.8,140,126.8,140z"/>
	<path fill="#FFFFFF" d="M114.5,337.7c0,0-4.6-2.2-7.4-5.8c0,0-3.4,2.8-5.4,5.1c-2,2.3-2.9,5.4-1.2,7.1c1.7,1.7,5.6,2.2,8,0
		C110.9,341.9,113.4,339.3,114.5,337.7z"/>
	<path fill="#F86E2D" d="M117.3,335c0,0-2.8-0.8-7.7-5.1c0,0,1.5-1.1,2.2-3.8c0.7-2.8,1-8.1,4.3-12.2c3.3-4,11-9.3,13.5-8.2
		c2.5,1.1,4.2,4.1,1.8,10.6c-2.4,6.5-2.4,8.6-8.1,13.6C119.2,333.4,117.3,335,117.3,335z"/>
	<path fill="#FFFFFF" d="M139.5,234.9c0,0-5.1,0.9-9.4-0.4c0,0-1.1,4.3-1.4,7.3c-0.3,3.1,0.8,6.1,3.2,6.5c2.4,0.4,5.8-1.5,6.5-4.7
		C139,240.4,139.5,236.9,139.5,234.9z"/>
	<path fill="#F86E2D" d="M140.1,231.1c0,0-2.7,1-9.2,0.4c0,0,0.6-1.7-0.4-4.4c-1-2.7-4-7.2-3.7-12.3c0.3-5.2,3.5-14,6.1-14.6
		c2.7-0.6,5.8,0.9,7.6,7.5c1.9,6.7,3,8.4,1.4,15.8C140.8,228.7,140.1,231.1,140.1,231.1z"/>
	<path fill="#FFD315" d="M92.5,306.8l-2-2.2l-0.9,0.8l2,2.2L92.5,306.8z M99.8,314.7l-3.2-3.5l-0.9,0.8l3.2,3.5L99.8,314.7z
		 M107.1,322.5l-3.2-3.5l-0.9,0.8l3.2,3.5L107.1,322.5z"/>
	<polygon fill="#FFD315" points="84.3,298.9 95.9,304.3 90.4,305.5 88.8,310.9 	"/>
	<path fill="#FFD315" d="M131.4,273.1l0.4-4.7c0-0.3-0.2-0.6-0.5-0.6c-0.3,0-0.6,0.2-0.6,0.5l-0.4,4.7c0,0.3,0.2,0.6,0.5,0.6
		C131.1,273.7,131.4,273.4,131.4,273.1z M130.6,283.8l0.4-4.7c0-0.3-0.2-0.6-0.5-0.6c-0.3,0-0.6,0.2-0.6,0.5l-0.4,4.7
		c0,0.3,0.2,0.6,0.5,0.6C130.3,284.3,130.6,284.1,130.6,283.8z M129.8,294.4l0.4-4.7c0-0.3-0.2-0.6-0.5-0.6c-0.3,0-0.6,0.2-0.6,0.5
		l-0.4,4.7c0,0.3,0.2,0.6,0.5,0.6C129.5,295,129.8,294.7,129.8,294.4z"/>
	<polygon fill="#FFD315" points="132.2,255.1 136.1,267.3 131.5,264.1 126.5,266.5 	"/>
	<path fill="#FFD315" d="M124.1,173.5l0.7-1.5l-1.1-0.5L123,173L124.1,173.5z M119.3,183.1l2.1-4.2l-1.1-0.5l-2.1,4.2L119.3,183.1z
		 M114.5,192.6l2.1-4.2l-1.1-0.5l-2.1,4.2L114.5,192.6z M109.7,202.1l2.1-4.2l-1.1-0.5l-2.1,4.2L109.7,202.1z"/>
	<polygon fill="#FFD315" points="128.1,164.3 127.1,177 124,172.3 118.4,172.7 	"/>
	<text transform="matrix(1 0 0 1 51.8826 49.0688)" fill="#FFFFFF" font-family="'ArialMT'" font-size="34">Dancing</text>
	<rect x="0" fill="none" stroke="#CC3300" stroke-miterlimit="10" width="228.5" height="375"/>
</g>
</svg>
